<svg width="2142" height="730" viewBox="0 0 2142 730" fill="none" xmlns="http://www.w3.org/2000/svg">
<path d="M0 632.031C90.09 632.031 180.18 632.031 273 632.031C273 664.041 273 696.051 273 729.031C182.91 729.031 92.82 729.031 0 729.031C0 697.021 0 665.011 0 632.031Z" fill="#D1D3D5"/>
<path d="M273 632.031C361.11 632.031 449.22 632.031 540 632.031C540 663.674 540 695.316 540 727.917C533.472 728.177 533.472 728.177 530.893 728.268C530.65 728.276 530.65 728.276 530.401 728.285C519.873 728.652 509.345 728.923 481.358 729.029C481.217 729.029 481.075 729.03 480.93 729.03C473.574 729.034 466.219 729.029 458.864 729.021C454.082 729.015 449.299 729.012 444.516 729.011C444.355 729.011 444.195 729.011 444.029 729.011C442.561 729.01 441.092 729.01 439.624 729.01C435.98 729.009 432.336 729.008 428.692 729.007C428.61 729.007 428.527 729.007 428.441 729.007C423.121 729.005 417.8 729.002 412.48 728.998C412.395 728.998 412.311 728.998 412.224 728.998C409.659 728.996 407.094 728.994 404.529 728.992C401.691 728.989 398.853 728.987 396.015 728.985C395.929 728.985 395.844 728.984 395.756 728.984C387.58 728.978 379.404 728.974 371.228 728.971C370.88 728.971 370.532 728.971 370.184 728.971C366.979 728.969 363.774 728.968 360.57 728.967C360.442 728.967 360.442 728.967 360.311 728.967C360.053 728.967 359.795 728.967 359.537 728.967C352.654 728.964 345.771 728.961 338.887 728.959C338.56 728.958 338.232 728.958 337.905 728.958C323.241 728.952 308.577 728.943 293.913 728.932C293.776 728.932 293.64 728.932 293.499 728.932C288.652 728.928 283.805 728.924 278.958 728.921C278.813 728.921 278.813 728.921 278.665 728.92C276.777 728.919 274.888 728.917 273 728.916C273 696.944 273 664.972 273 632.031Z" fill="#00AEEF"/>
<path d="M540 632.031C627.45 632.031 714.9 632.031 805 632.031C805 664.041 805 696.051 805 729.031C717.55 729.031 630.1 729.031 540 729.031C540 697.021 540 665.011 540 632.031Z" fill="#18A79E"/>
<path d="M805 632.031C893.11 632.031 981.22 632.031 1072 632.031C1072 664.041 1072 696.051 1072 729.031C983.89 729.031 895.78 729.031 805 729.031C805 697.021 805 665.011 805 632.031Z" fill="#0154A6"/>
<path d="M1072 632.031C1160.44 632.031 1248.88 632.031 1340 632.031C1340 664.041 1340 696.051 1340 729.031C1251.56 729.031 1163.12 729.031 1072 729.031C1072 697.021 1072 665.011 1072 632.031Z" fill="#ED1D24"/>
<path d="M1340 632.031C1429.43 632.031 1518.86 632.031 1611 632.031C1611 663.679 1611 695.328 1611 727.935C1597.56 728.196 1597.56 728.196 1592.25 728.287C1591.92 728.293 1591.59 728.298 1591.24 728.304C1569.9 728.669 1548.55 728.944 1492.06 729.031C1491.5 729.031 1490.94 729.031 1490.38 729.031C1476.75 729.03 1463.12 729.021 1449.49 729.007C1440.68 728.999 1431.87 728.992 1423.06 728.989C1422.76 728.988 1422.47 728.988 1422.16 728.988C1419.2 728.987 1416.24 728.986 1413.28 728.984C1407.26 728.982 1401.24 728.979 1395.22 728.976C1394.95 728.976 1394.67 728.976 1394.38 728.976C1380.3 728.969 1366.22 728.957 1352.14 728.945C1351.94 728.945 1351.74 728.944 1351.54 728.944C1347.69 728.941 1343.85 728.937 1340 728.934C1340 696.956 1340 664.978 1340 632.031Z" fill="#F48221"/>
<path d="M1611 632C1786.23 632 1961.46 632 2142 632C2142 663.68 2142 695.36 2142 728C2103.56 728.173 2065.13 728.337 2026.69 728.491C2024.45 728.5 2022.2 728.509 2019.95 728.518C1942 728.831 1864.04 729.054 1727.95 729.063C1725.74 729.062 1723.54 729.062 1721.33 729.061C1711.2 729.058 1701.07 729.055 1690.94 729.051C1689.68 729.05 1688.41 729.05 1687.1 729.049C1661.73 729.039 1636.37 729.019 1611 729C1611 696.99 1611 664.98 1611 632Z" fill="#92278F"/>
<path d="M1611 632.216C1697.79 632.216 1784.58 632.216 1874 632.216C1874 664.155 1874 696.094 1874 729.001C1787.21 729.001 1700.42 729.001 1611 729.001C1611 697.062 1611 665.123 1611 632.216Z" fill="#ED4D9B"/>
<path d="M278.457 2.00854C284.936 5.08372 287.953 11.1285 291.375 17.0906C295.879 24.776 300.59 32.2826 305.5 39.7156C310.703 47.6105 315.694 55.5903 320.512 63.7251C325.908 72.809 331.617 81.6888 337.317 90.5842C347.654 106.746 357.778 123.044 367.937 139.318C374.746 150.226 381.565 161.128 388.442 171.994C392.485 178.387 396.495 184.799 400.5 191.216C407.45 202.348 414.446 213.451 421.471 224.536C427.75 234.446 433.975 244.386 440.138 254.368C444.284 261.076 448.48 267.751 452.698 274.414C455.75 279.235 458.791 284.063 461.812 288.903C462.206 289.533 462.6 290.164 463.005 290.813C464.337 292.947 465.668 295.081 467 297.216C477.525 314.083 477.525 314.083 488.125 330.903C492.85 338.364 497.506 345.866 502.145 353.38C505.729 359.181 509.35 364.956 513 370.716C517.764 378.232 522.459 385.789 527.134 393.362C530.825 399.336 534.555 405.283 538.312 411.216C541.812 416.745 545.306 422.277 548.75 427.841C549.384 428.864 550.018 429.888 550.672 430.942C552 433.216 552 433.216 552 434.216C546.308 434.514 540.62 434.731 534.922 434.875C532.988 434.935 531.053 435.017 529.121 435.121C513.158 435.96 513.158 435.96 508.175 431.933C506.064 428.794 504.537 425.669 503 422.216C501.742 420.134 500.455 418.07 499.141 416.024C497.842 413.902 496.545 411.778 495.25 409.653C490.063 401.176 484.832 392.73 479.509 384.338C475.478 377.982 471.485 371.601 467.5 365.216C463.019 358.037 458.526 350.866 454 343.716C447.6 333.601 441.261 323.449 434.923 313.296C431.784 308.268 428.642 303.242 425.5 298.216C421.713 292.158 417.927 286.1 414.145 280.04C408.45 270.919 402.75 261.802 397 252.716C390.6 242.601 384.261 232.449 377.923 222.296C374.784 217.268 371.642 212.242 368.5 207.216C367.25 205.216 366 203.216 364.75 201.216C364.131 200.226 363.512 199.236 362.875 198.216C357.25 189.216 357.25 189.216 355.374 186.214C354.127 184.218 352.879 182.222 351.632 180.227C348.468 175.165 345.305 170.103 342.145 165.04C336.45 155.919 330.75 146.802 325 137.716C318.608 127.613 312.276 117.473 305.945 107.331C303.335 103.151 300.723 98.9718 298.111 94.793C296.842 92.7633 295.574 90.7332 294.307 88.7026C291.497 84.2009 288.68 79.7038 285.836 75.2234C285.363 74.4751 284.889 73.7268 284.402 72.9558C283.535 71.5875 282.666 70.2215 281.792 68.8581C279 64.4395 279 64.4395 279 62.2156C275.851 60.3495 273.65 59.7531 270 60.2156C267.741 62.0112 267.741 62.0112 265.75 64.5281C264.968 65.4472 264.185 66.3663 263.379 67.3132C262.594 68.271 261.809 69.2288 261 70.2156C260.287 71.0805 259.574 71.9455 258.84 72.8367C257.371 74.6306 255.908 76.429 254.449 78.2312C251.682 81.6032 248.849 84.9122 246 88.2156C242.445 92.3401 238.932 96.4877 235.5 100.716C231.566 105.562 227.516 110.297 223.441 115.024C220.41 118.549 217.43 122.106 214.5 125.716C210.566 130.562 206.516 135.297 202.441 140.024C199.41 143.549 196.43 147.106 193.5 150.716C189.566 155.562 185.516 160.297 181.441 165.024C178.41 168.549 175.43 172.106 172.5 175.716C168.566 180.562 164.516 185.297 160.441 190.024C157.41 193.549 154.43 197.106 151.5 200.716C147.566 205.562 143.516 210.297 139.441 215.024C136.41 218.549 133.43 222.106 130.5 225.716C127.068 229.943 123.554 234.091 120 238.216C116.39 242.407 112.814 246.619 109.312 250.903C108.579 251.769 107.846 252.636 107.09 253.528C104.911 256.191 104.911 256.191 103.254 259.341C101.083 262.88 99.4824 264.916 96 267.216C89.4941 268.604 82.7358 267.924 76.1543 267.44C72.9726 267.214 69.7968 267.069 66.6094 266.95C61.4032 266.753 56.2019 266.504 51 266.216C51.4596 261.376 53.8252 258.413 56.8125 254.778C57.3002 254.171 57.788 253.564 58.2905 252.939C62.8025 247.363 67.4798 241.929 72.1719 236.505C75.3619 232.81 78.4521 229.038 81.5312 225.251C89.3413 215.649 97.2153 206.102 105.238 196.677C108.543 192.784 111.735 188.812 114.906 184.809C117.851 181.162 120.895 177.601 123.934 174.032C126.678 170.801 129.367 167.539 132 164.216C135.549 159.736 139.229 155.382 142.934 151.032C145.678 147.801 148.367 144.539 151 141.216C154.549 136.736 158.229 132.382 161.934 128.032C164.678 124.801 167.367 121.539 170 118.216C173.091 114.314 176.274 110.505 179.5 106.716C183.321 102.226 187.054 97.6821 190.719 93.0632C198.401 83.473 206.273 74.0343 214.238 64.6772C217.543 60.7838 220.735 56.8121 223.906 52.8093C226.851 49.1616 229.895 45.601 232.934 42.032C236.335 38.0273 239.628 33.9477 242.891 29.8288C245.911 26.0871 249.024 22.4265 252.145 18.7683C254.154 16.4108 256.133 14.0453 258.043 11.6062C263.944 4.39829 268.901 -0.179287 278.457 2.00854Z" fill="white"/>
<path d="M562 2.21606C566.141 6.76544 569.234 12.1518 572.5 17.3411C573.428 18.8077 573.428 18.8077 574.375 20.3039C576.253 23.2728 578.127 26.2442 580 29.2161C581.031 30.849 582.063 32.4818 583.094 34.1145C584.551 36.4212 586.008 38.7281 587.464 41.0356C593.613 50.781 599.809 60.4971 606 70.2161C613.175 81.4786 620.342 92.7455 627.466 104.04C633.616 113.783 639.81 123.498 646 133.216C655.185 147.634 664.34 162.07 673.459 176.53C681.606 189.446 689.795 202.336 698 215.216C705.173 226.476 712.339 237.741 719.462 249.033C723.293 255.104 727.144 261.162 731 267.216C735.838 274.811 740.658 282.416 745.461 290.032C749.292 296.103 753.143 302.161 757 308.216C761.838 315.811 766.658 323.416 771.461 331.032C775.292 337.103 779.143 343.161 783 349.216C787.348 356.041 791.684 362.872 796 369.716C802.636 380.236 809.318 390.726 816 401.216C824.197 414.083 832.377 426.959 840.515 439.863C842.052 442.298 843.592 444.732 845.133 447.165C846.172 448.807 847.211 450.449 848.25 452.091C848.754 452.888 849.258 453.684 849.778 454.505C852.598 458.97 855.379 463.455 858.125 467.966C861.114 472.844 864.211 477.639 867.375 482.404C867.805 483.052 868.234 483.701 868.677 484.369C870.328 486.838 871.895 489.111 874 491.216C874.125 494.341 874.125 494.341 874 497.216C868.947 497.241 863.893 497.259 858.839 497.271C857.12 497.276 855.402 497.283 853.683 497.292C851.211 497.304 848.738 497.309 846.266 497.314C845.116 497.321 845.116 497.321 843.942 497.329C837.053 497.33 837.053 497.33 834 496.216C832.312 493.737 830.866 491.339 829.438 488.716C828.548 487.143 827.654 485.571 826.758 484.001C826.301 483.198 825.843 482.395 825.372 481.568C823.302 478.019 821.07 474.586 818.813 471.154C814.306 464.271 809.914 457.323 805.563 450.341C801.062 443.12 796.552 435.905 792 428.716C787.355 421.374 782.734 414.018 778.125 406.654C777.507 405.666 776.888 404.679 776.25 403.661C773.413 399.124 770.604 394.574 767.864 389.978C765.358 385.783 762.744 381.675 760.063 377.591C750.755 363.307 741.791 348.8 732.879 334.267C729.37 328.569 725.812 322.901 722.261 317.229C720.673 314.693 719.087 312.155 717.501 309.617C716.699 308.333 715.896 307.05 715.094 305.766C712.569 301.728 710.047 297.687 707.528 293.646C700.709 282.713 693.849 271.81 686.921 260.946C680.848 251.419 674.858 241.842 668.918 232.232C668.38 231.36 667.841 230.489 667.286 229.591C666.181 227.802 665.075 226.013 663.97 224.224C659.733 217.373 655.429 210.567 651.109 203.768C648.374 199.445 645.73 195.093 643.188 190.654C640.623 186.181 637.797 182.005 634.801 177.814C631.725 173.377 628.959 168.752 626.163 164.135C623.929 160.449 621.683 156.77 619.438 153.091C618.724 151.921 618.724 151.921 617.995 150.728C615.023 145.865 612.008 141.034 608.934 136.236C602.445 126.102 595.99 115.944 589.75 105.654C589.368 105.029 588.985 104.404 588.591 103.76C586 99.4521 586 99.4521 586 97.2161C585.34 97.2161 584.68 97.2161 584 97.2161C582.66 95.2239 582.66 95.2239 581.063 92.3411C580.448 91.2595 579.833 90.178 579.2 89.0637C578.855 88.4567 578.51 87.8497 578.154 87.2244C575.945 83.3788 573.665 79.5765 571.375 75.7786C570.92 75.0098 570.465 74.241 569.997 73.449C565.635 66.2272 565.635 66.2272 559 61.2161C554.997 60.9549 552.404 61.0758 549 63.2161C547.098 65.3792 547.098 65.3792 545.375 67.8411C544.297 69.3341 543.181 70.8026 542 72.2161C541.34 72.2161 540.68 72.2161 540 72.2161C539.744 72.7936 539.487 73.3711 539.223 73.9661C537.883 76.431 536.355 78.1709 534.438 80.2161C530.339 84.7176 526.743 89.4895 523.176 94.4192C520.969 97.2559 518.554 99.6932 516 102.216C515.67 102.876 515.34 103.536 515 104.216C514.34 104.216 513.68 104.216 513 104.216C512.771 104.928 512.541 105.639 512.305 106.372C510.734 109.796 508.712 111.984 506.125 114.716C502.924 118.118 499.888 121.544 497 125.216C496.069 126.305 495.132 127.389 494.188 128.466C491.188 131.938 488.391 135.548 485.614 139.2C484 141.216 484 141.216 482.559 142.639C481.042 144.174 479.748 145.749 478.442 147.466C477.973 148.074 477.505 148.683 477.022 149.31C476.051 150.579 475.082 151.85 474.116 153.122C471.632 156.338 469.371 158.885 466 161.216C465.567 161.938 465.134 162.66 464.688 163.404C462.7 166.716 460.302 169.391 457.719 172.251C455.95 174.207 455.95 174.207 454.407 176.462C453.71 177.33 453.71 177.33 453 178.216C452.34 178.216 451.68 178.216 451 178.216C450.753 178.938 450.505 179.66 450.25 180.404C448.878 183.492 447.277 185.726 445 188.216C444.34 188.216 443.68 188.216 443 188.216C442.773 188.773 442.547 189.33 442.313 189.904C440.588 192.943 438.679 194.974 436 197.216C433.535 197.614 433.535 197.614 431 197.216C429.297 195.521 429.297 195.521 427.75 193.091C427.166 192.185 426.582 191.279 425.981 190.345C425 188.796 425 188.796 424 187.216C423.188 186.035 422.371 184.856 421.551 183.681C420.721 182.464 419.891 181.247 419.063 180.029C418.46 179.175 418.46 179.175 417.845 178.303C415.087 174.143 414.48 171.158 415 166.216C416.375 163.779 416.375 163.779 418 162.216C418.66 162.216 419.32 162.216 420 162.216C420.341 161.412 420.341 161.412 420.688 160.591C422.456 157.391 424.537 154.926 427 152.216C427.66 152.216 428.32 152.216 429 152.216C429.237 151.511 429.475 150.806 429.719 150.079C431.225 146.713 433.156 144.246 435.5 141.404C436.294 140.428 437.088 139.452 437.907 138.447C438.597 137.71 439.288 136.974 440 136.216C440.66 136.216 441.32 136.216 442 136.216C442.226 135.517 442.451 134.819 442.684 134.099C444.287 130.589 446.534 127.954 449.063 125.091C450.069 123.928 451.074 122.764 452.078 121.599C452.826 120.737 452.826 120.737 453.588 119.858C455.537 117.593 457.428 115.284 459.313 112.966C467.847 102.493 476.413 92.049 485.161 81.7544C490.304 75.6954 495.379 69.578 500.266 63.3098C500.983 62.392 501.699 61.4742 502.438 60.5286C503.076 59.6997 503.714 58.8708 504.371 58.0168C504.909 57.4226 505.446 56.8283 506 56.2161C506.66 56.2161 507.32 56.2161 508 56.2161C508.246 55.4864 508.493 54.7568 508.746 54.0051C510.136 50.9145 511.736 49.0446 514.063 46.5911C518.097 42.2352 521.883 37.7472 525.617 33.134C528.663 29.4049 531.779 25.7394 534.898 22.0725C538.677 17.6213 542.368 13.1054 546.028 8.5559C554.431 -1.41111 554.431 -1.41111 562 2.21606Z" fill="white"/>
<path d="M897.5 123.84C898.161 123.841 898.823 123.842 899.505 123.843C928.845 123.971 953.253 135.253 974.562 155.403C987.668 168.953 996.525 185.941 1001 204.215C1001.17 204.906 1001.35 205.596 1001.53 206.308C1003.24 213.759 1003.39 221.093 1003.37 228.715C1003.37 229.377 1003.37 230.039 1003.37 230.72C1003.24 260.061 991.962 284.469 971.812 305.778C958.262 318.883 941.274 327.741 923 332.215C922.309 332.391 921.619 332.566 920.907 332.746C913.456 334.46 906.122 334.601 898.5 334.59C897.838 334.59 897.176 334.589 896.495 334.588C867.154 334.46 842.746 323.178 821.437 303.028C808.332 289.478 799.474 272.49 795 254.215C794.824 253.525 794.649 252.834 794.469 252.123C792.755 244.672 792.614 237.338 792.625 229.715C792.625 229.054 792.626 228.392 792.627 227.71C792.755 198.37 804.037 173.962 824.187 152.653C837.737 139.547 854.725 130.69 873 126.215C873.69 126.04 874.38 125.865 875.092 125.685C882.543 123.971 889.877 123.829 897.5 123.84ZM846 173.215C845.077 173.995 845.077 173.995 844.136 174.79C829.896 187.786 822.173 208.066 821.003 226.926C820.979 247.936 828.183 266.382 842 282.215C842.519 282.83 843.039 283.445 843.574 284.079C856.571 298.319 876.85 306.042 895.711 307.211C916.721 307.236 935.166 300.032 951 286.215C951.614 285.696 952.229 285.176 952.863 284.641C967.104 271.644 974.826 251.365 975.996 232.504C976.021 211.494 968.816 193.049 955 177.215C954.48 176.601 953.961 175.986 953.425 175.352C940.429 161.111 920.149 153.389 901.289 152.219C880.279 152.194 861.833 159.399 846 173.215Z" fill="white"/>
<path d="M1058 134.216C1059.6 134.171 1061.21 134.139 1062.81 134.113C1063.7 134.094 1064.6 134.074 1065.52 134.055C1069.15 134.291 1070.87 135.716 1073.5 138.154C1074.42 138.977 1075.34 139.801 1076.28 140.65C1077.18 141.497 1078.08 142.343 1079 143.216C1080.66 144.719 1082.33 146.219 1084 147.716C1084.82 148.464 1085.64 149.211 1086.48 149.982C1089.01 152.228 1091.61 154.351 1094.25 156.466C1099.32 160.564 1104.06 164.947 1108.8 169.414C1113.13 173.47 1117.63 177.246 1122.27 180.95C1126.43 184.403 1130.34 188.115 1134.27 191.833C1136.85 194.232 1136.85 194.232 1139.54 195.724C1142.52 197.53 1144.59 199.707 1147 202.216C1154.21 209.171 1161.6 215.842 1169.42 222.107C1172.88 224.936 1176.16 227.947 1179.46 230.958C1182.14 233.338 1184.9 235.593 1187.69 237.841C1191.41 240.854 1194.81 243.968 1198.14 247.411C1201.28 250.458 1204.74 253.128 1208.15 255.868C1211.83 258.9 1215.32 262.113 1218.81 265.368C1220.82 267.061 1222.6 268.174 1225 269.216C1226.28 266.648 1226.14 264.803 1226.16 261.926C1226.17 260.805 1226.18 259.683 1226.19 258.527C1226.19 257.29 1226.2 256.054 1226.21 254.78C1226.22 253.482 1226.23 252.185 1226.24 250.848C1226.26 247.284 1226.28 243.721 1226.3 240.157C1226.33 236.434 1226.35 232.712 1226.38 228.99C1226.43 221.939 1226.47 214.887 1226.52 207.836C1226.57 199.81 1226.62 191.783 1226.68 183.757C1226.79 167.243 1226.9 150.73 1227 134.216C1235.91 134.216 1244.82 134.216 1254 134.216C1254 196.916 1254 259.616 1254 324.216C1246.12 324.216 1246.12 324.216 1241.69 320.279C1240.74 319.455 1239.8 318.631 1238.82 317.782C1237.43 316.512 1237.43 316.512 1236 315.216C1235.16 314.462 1234.32 313.708 1233.46 312.931C1231.8 311.442 1230.16 309.948 1228.51 308.45C1226 306.215 1223.43 304.082 1220.81 301.966C1215.04 297.294 1209.45 292.438 1203.85 287.564C1199.52 283.791 1195.15 280.055 1190.78 276.321C1187.77 273.745 1184.78 271.153 1181.81 268.529C1176.45 263.819 1170.88 259.356 1165.34 254.871C1163.66 253.512 1161.98 252.146 1160.31 250.779C1159.3 249.955 1158.28 249.131 1157.24 248.282C1156.5 247.601 1155.76 246.919 1155 246.216C1155 245.556 1155 244.896 1155 244.216C1154.44 243.969 1153.89 243.721 1153.31 243.466C1150.58 241.987 1148.32 240.281 1146 238.216C1146 237.556 1146 236.896 1146 236.216C1145.44 235.958 1144.88 235.7 1144.3 235.435C1141.73 234.074 1139.55 232.488 1137.25 230.716C1136.45 230.108 1135.65 229.499 1134.83 228.872C1134.22 228.326 1133.62 227.779 1133 227.216C1133 226.556 1133 225.896 1133 225.216C1132.45 224.98 1131.89 224.744 1131.32 224.501C1128.44 222.903 1126.29 220.898 1123.88 218.654C1120.69 215.579 1120.69 215.579 1117 213.216C1117 212.556 1117 211.896 1117 211.216C1116.41 210.947 1115.83 210.677 1115.22 210.399C1113 209.217 1111.35 207.945 1109.47 206.282C1108.82 205.716 1108.18 205.149 1107.51 204.566C1106.85 203.976 1106.18 203.386 1105.5 202.779C1104.18 201.612 1102.86 200.447 1101.53 199.282C1100.61 198.471 1100.61 198.471 1099.67 197.642C1097.91 196.101 1097.91 196.101 1095.53 194.431C1095.03 194.03 1094.52 193.629 1094 193.216C1094 192.556 1094 191.896 1094 191.216C1091.03 190.721 1091.03 190.721 1088 190.216C1088 190.894 1087.99 191.573 1087.99 192.272C1087.88 208.763 1087.78 225.254 1087.66 241.744C1087.61 249.719 1087.55 257.694 1087.5 265.669C1087.46 272.618 1087.41 279.567 1087.36 286.516C1087.34 290.197 1087.31 293.878 1087.29 297.559C1087.27 301.663 1087.24 305.767 1087.21 309.872C1087.2 311.099 1087.19 312.326 1087.19 313.59C1087.17 315.26 1087.17 315.26 1087.16 316.964C1087.15 317.936 1087.15 318.907 1087.14 319.908C1087 322.216 1087 322.216 1086 324.216C1081.52 324.245 1077.04 324.263 1072.56 324.279C1071.28 324.287 1070 324.295 1068.69 324.304C1067.47 324.307 1066.26 324.31 1065 324.314C1063.32 324.322 1063.32 324.322 1061.59 324.33C1059 324.216 1059 324.216 1058 323.216C1057.9 320.775 1057.87 318.362 1057.88 315.921C1057.88 315.148 1057.88 314.375 1057.88 313.579C1057.88 310.97 1057.88 308.362 1057.89 305.753C1057.89 303.891 1057.89 302.029 1057.89 300.166C1057.89 295.094 1057.89 290.022 1057.9 284.95C1057.9 279.656 1057.91 274.361 1057.91 269.067C1057.91 259.033 1057.92 249 1057.93 238.967C1057.94 227.547 1057.94 216.128 1057.95 204.709C1057.96 181.211 1057.98 157.714 1058 134.216Z" fill="white"/>
<path d="M1336 134.216C1350.02 134.123 1364.04 134.053 1378.07 134.009C1384.58 133.988 1391.09 133.96 1397.6 133.915C1403.89 133.871 1410.18 133.847 1416.47 133.837C1418.86 133.83 1421.26 133.815 1423.65 133.794C1427.02 133.764 1430.38 133.76 1433.75 133.762C1434.73 133.748 1435.7 133.734 1436.71 133.719C1451.09 133.804 1464.48 141.078 1474.77 150.787C1483.69 160.521 1486.53 170.649 1486.45 183.495C1486.44 185.58 1486.47 187.663 1486.5 189.748C1486.57 201.605 1484.1 208.821 1475.88 217.279C1475.07 218.148 1475.07 218.148 1474.25 219.035C1472.88 220.477 1471.45 221.853 1470 223.216C1469.34 223.216 1468.68 223.216 1468 223.216C1467.64 224.114 1467.64 224.114 1467.27 225.029C1463.3 231.864 1453.3 234.453 1446.17 236.47C1438.8 238.205 1431.55 238.338 1424 238.216C1424 239.866 1424 241.516 1424 243.216C1424.66 243.546 1425.32 243.876 1426 244.216C1427.31 245.981 1428.61 247.747 1429.91 249.517C1432.58 252.968 1435.44 256.243 1438.31 259.529C1442.89 264.769 1447.38 270.065 1451.76 275.474C1454.3 278.586 1456.9 281.654 1459.5 284.716C1462.85 288.663 1466.17 292.633 1469.44 296.654C1473.49 301.631 1477.65 306.505 1481.84 311.359C1483.23 312.973 1484.62 314.594 1486 316.216C1487.17 317.566 1487.17 317.566 1488.36 318.943C1490 321.216 1490 321.216 1490 324.216C1486.34 324.677 1482.68 324.95 1479 325.216C1477.9 325.328 1477.9 325.328 1476.78 325.441C1462.42 326.816 1462.42 326.816 1456.87 323.15C1454.29 320.311 1452.15 317.395 1450 314.216C1448.56 312.432 1447.1 310.661 1445.63 308.904C1444.9 308 1444.17 307.097 1443.41 306.166C1440.66 302.803 1437.84 299.507 1435 296.216C1430.68 291.201 1426.45 286.125 1422.27 280.986C1417.92 275.672 1413.45 270.451 1409 265.216C1390.45 243.391 1390.45 243.391 1387 238.216C1384.5 237.783 1384.5 237.783 1381.59 237.888C1380.52 237.893 1379.45 237.899 1378.34 237.904C1376.66 237.935 1376.66 237.935 1374.94 237.966C1373.81 237.972 1372.68 237.977 1371.52 237.982C1366.4 237.547 1366.4 237.547 1362 239.216C1361.87 241.863 1361.81 244.485 1361.79 247.133C1361.78 248.376 1361.78 248.376 1361.76 249.645C1361.73 252.4 1361.71 255.154 1361.68 257.908C1361.66 259.812 1361.64 261.716 1361.62 263.621C1361.57 268.643 1361.52 273.665 1361.47 278.688C1361.42 283.809 1361.36 288.93 1361.31 294.05C1361.2 304.106 1361.1 314.161 1361 324.216C1357.02 324.245 1353.04 324.263 1349.06 324.279C1347.93 324.287 1346.79 324.296 1345.62 324.304C1344.54 324.308 1343.46 324.311 1342.35 324.314C1341.35 324.319 1340.35 324.325 1339.32 324.33C1337 324.216 1337 324.216 1336 323.216C1335.9 320.775 1335.87 318.363 1335.88 315.921C1335.88 315.148 1335.88 314.376 1335.88 313.58C1335.88 310.971 1335.88 308.362 1335.89 305.753C1335.89 303.891 1335.89 302.029 1335.89 300.167C1335.89 295.095 1335.89 290.023 1335.9 284.95C1335.9 279.656 1335.91 274.362 1335.91 269.067C1335.91 259.034 1335.92 249 1335.93 238.967C1335.94 227.548 1335.94 216.128 1335.95 204.709C1335.96 181.211 1335.98 157.714 1336 134.216ZM1360 158.216C1359.05 161.064 1358.87 162.825 1358.87 165.776C1358.87 166.698 1358.86 167.619 1358.86 168.568C1358.86 169.562 1358.87 170.556 1358.87 171.58C1358.87 172.604 1358.87 173.629 1358.86 174.685C1358.86 176.855 1358.87 179.024 1358.87 181.194C1358.88 184.505 1358.87 187.817 1358.86 191.129C1358.86 193.237 1358.87 195.346 1358.87 197.455C1358.87 198.442 1358.86 199.43 1358.86 200.448C1358.85 207.391 1358.85 207.391 1360 214.216C1362.78 215.608 1365.07 215.359 1368.19 215.378C1369.49 215.387 1370.79 215.397 1372.13 215.407C1373.57 215.412 1375 215.416 1376.43 215.42C1377.9 215.425 1379.37 215.431 1380.84 215.437C1383.93 215.447 1387.03 215.453 1390.12 215.457C1394.05 215.462 1397.98 215.486 1401.91 215.515C1404.96 215.533 1408 215.538 1411.04 215.54C1412.49 215.543 1413.94 215.551 1415.38 215.564C1428.27 215.674 1443.28 214.703 1453.07 205.209C1458.61 198.554 1461.44 192.237 1460.81 183.529C1460.31 179.566 1459.51 175.936 1458 172.216C1457.34 172.216 1456.68 172.216 1456 172.216C1455.61 171.352 1455.61 171.352 1455.22 170.47C1452.08 164.664 1447.32 160.249 1441 158.279C1431.81 155.935 1422.52 156.053 1413.11 156.048C1411.67 156.045 1410.23 156.042 1408.79 156.038C1405.79 156.032 1402.79 156.031 1399.79 156.031C1395.95 156.031 1392.1 156.018 1388.26 156C1385.29 155.989 1382.33 155.987 1379.37 155.988C1377.95 155.987 1376.53 155.982 1375.11 155.974C1373.13 155.965 1371.16 155.969 1369.18 155.974C1367.49 155.971 1367.49 155.971 1365.77 155.969C1362.79 156.012 1362.79 156.012 1360 158.216Z" fill="white"/>
<path d="M1546 134.216C1589.23 134.216 1632.46 134.216 1677 134.216C1677 141.476 1677 148.736 1677 156.216C1672.39 156.253 1672.39 156.253 1667.68 156.292C1657.54 156.375 1647.4 156.464 1637.26 156.555C1631.11 156.61 1624.96 156.664 1618.81 156.713C1612.87 156.761 1606.94 156.813 1601.01 156.869C1598.74 156.889 1596.47 156.908 1594.21 156.925C1591.04 156.949 1587.87 156.979 1584.7 157.01C1583.76 157.016 1582.82 157.022 1581.85 157.028C1580.98 157.038 1580.12 157.048 1579.23 157.058C1578.48 157.064 1577.73 157.071 1576.96 157.077C1574.79 157.149 1574.79 157.149 1572 158.216C1572 174.386 1572 190.556 1572 207.216C1575.61 209.021 1576.6 209.466 1580.32 209.456C1581.17 209.459 1582.03 209.462 1582.91 209.465C1583.84 209.457 1584.77 209.45 1585.73 209.443C1587.2 209.443 1587.2 209.443 1588.71 209.444C1591.97 209.442 1595.23 209.427 1598.48 209.411C1600.74 209.407 1603 209.405 1605.26 209.403C1611.21 209.395 1617.15 209.375 1623.09 209.353C1629.16 209.333 1635.23 209.324 1641.29 209.313C1653.2 209.292 1665.1 209.257 1677 209.216C1677 217.136 1677 225.056 1677 233.216C1625.52 233.711 1625.52 233.711 1573 234.216C1571.65 236.922 1571.86 239.056 1571.84 242.087C1571.83 243.318 1571.82 244.55 1571.81 245.818C1571.8 247.168 1571.8 248.518 1571.8 249.868C1571.79 251.248 1571.79 252.628 1571.78 254.008C1571.77 256.903 1571.76 259.797 1571.76 262.691C1571.75 266.401 1571.73 270.111 1571.7 273.822C1571.68 276.672 1571.68 279.523 1571.68 282.374C1571.67 283.742 1571.67 285.11 1571.65 286.478C1571.64 288.39 1571.64 290.303 1571.64 292.216C1571.64 293.304 1571.64 294.393 1571.63 295.515C1572.06 298.651 1572.55 299.309 1575 301.216C1576.98 301.668 1576.98 301.668 1579.19 301.608C1580.47 301.624 1580.47 301.624 1581.77 301.641C1582.7 301.638 1583.64 301.635 1584.6 301.632C1586.07 301.645 1586.07 301.645 1587.58 301.658C1590.84 301.683 1594.09 301.688 1597.35 301.692C1599.61 301.707 1601.87 301.722 1604.12 301.74C1610.07 301.782 1616.02 301.806 1621.97 301.827C1631.5 301.863 1641.02 301.924 1650.55 301.986C1653.89 302.005 1657.23 302.016 1660.56 302.027C1662.6 302.037 1664.63 302.048 1666.66 302.058C1668.07 302.06 1668.07 302.06 1669.5 302.061C1675.89 302.102 1675.89 302.102 1677 303.216C1677 310.146 1677 317.076 1677 324.216C1633.77 324.216 1590.54 324.216 1546 324.216C1546 261.516 1546 198.816 1546 134.216Z" fill="white"/>
<path d="M1822 134.216C1825.63 134.216 1829.26 134.216 1833 134.216C1833.45 135.139 1833.9 136.062 1834.36 137.013C1839.48 147.425 1844.99 157.592 1850.62 167.733C1855.08 175.771 1859.4 183.866 1863.62 192.028C1868.11 200.655 1872.69 209.218 1877.36 217.741C1881.23 224.799 1885.06 231.877 1888.88 238.966C1889.46 240.054 1890.05 241.141 1890.65 242.262C1891.84 244.475 1893.03 246.688 1894.22 248.901C1897.72 255.417 1901.23 261.93 1904.74 268.443C1907.72 273.982 1910.7 279.523 1913.68 285.067C1914.89 287.325 1916.1 289.583 1917.31 291.841C1917.89 292.923 1918.47 294.005 1919.07 295.121C1921.62 299.865 1924.19 304.593 1926.88 309.263C1927.31 310.006 1927.73 310.749 1928.17 311.514C1928.94 312.847 1929.72 314.176 1930.51 315.5C1932.43 318.798 1933 320.272 1933 324.216C1924.42 325.799 1915.41 327.069 1907 324.216C1900.44 318.692 1897.15 310.309 1893.64 302.663C1891.1 297.334 1888.02 292.368 1884.94 287.341C1880.41 279.761 1875.95 272.116 1872 264.216C1860.58 264.17 1849.16 264.134 1837.73 264.112C1832.43 264.102 1827.13 264.088 1821.82 264.065C1816.71 264.043 1811.59 264.031 1806.48 264.026C1804.52 264.022 1802.57 264.015 1800.61 264.004C1797.88 263.99 1795.15 263.988 1792.42 263.989C1791.2 263.978 1791.2 263.978 1789.96 263.967C1786.1 263.981 1784.28 264.027 1781 266.216C1779.57 268.53 1778.26 270.815 1777 273.216C1776.63 273.919 1776.25 274.623 1775.87 275.347C1774.29 278.338 1772.73 281.336 1771.18 284.339C1770.8 285.068 1770.42 285.797 1770.02 286.548C1769.68 287.205 1769.34 287.862 1768.99 288.539C1768 290.216 1768 290.216 1766 292.216C1765.29 294.199 1764.61 296.199 1764 298.216C1763.34 298.216 1762.68 298.216 1762 298.216C1761.76 298.992 1761.52 299.768 1761.28 300.567C1754.84 318.949 1754.84 318.949 1748 324.216C1739.29 326.716 1729.86 325.445 1721 324.216C1721.33 317.157 1724.52 311.967 1727.94 305.903C1728.53 304.84 1729.11 303.776 1729.72 302.68C1731.47 299.519 1733.23 296.367 1735 293.216C1735.9 291.593 1736.8 289.969 1737.7 288.345C1739.31 285.434 1740.93 282.527 1742.55 279.622C1752.27 262.173 1761.84 244.629 1771.33 227.052C1776.36 217.747 1781.39 208.452 1786.6 199.252C1789.92 193.395 1793.15 187.497 1796.38 181.591C1797.14 180.185 1797.14 180.185 1797.93 178.75C1800.37 174.276 1802.76 169.795 1805 165.216C1805.66 165.216 1806.32 165.216 1807 165.216C1807.66 162.906 1808.32 160.596 1809 158.216C1809.66 158.216 1810.32 158.216 1811 158.216C1811.06 157.419 1811.12 156.623 1811.18 155.802C1812.29 150.944 1814.58 147.125 1817.06 142.841C1817.53 142.009 1818.01 141.178 1818.49 140.321C1819.65 138.282 1820.83 136.248 1822 134.216ZM1826 184.216C1821.92 189.062 1819.36 194.412 1816.61 200.087C1814.51 204.162 1812.03 207.928 1809.52 211.759C1807.65 214.777 1806.39 217.953 1805 221.216C1804.02 222.688 1803.02 224.146 1802 225.591C1799.02 229.905 1797.36 234.173 1796 239.216C1797.51 240.725 1798.88 240.429 1800.99 240.532C1801.83 240.574 1802.67 240.616 1803.54 240.66C1804.91 240.718 1804.91 240.718 1806.31 240.778C1807.73 240.841 1807.73 240.841 1809.17 240.905C1825.17 241.557 1841.03 241.228 1857 240.216C1857.84 237.335 1858.2 235.737 1857.11 232.895C1856.64 232.111 1856.17 231.328 1855.68 230.521C1855.17 229.645 1854.66 228.77 1854.13 227.869C1853.57 226.952 1853.01 226.035 1852.44 225.091C1851.32 223.19 1850.19 221.289 1849.07 219.388C1848.54 218.485 1848 217.582 1847.44 216.651C1845.82 213.912 1844.27 211.142 1842.75 208.341C1842.32 207.538 1841.88 206.735 1841.43 205.907C1840.27 203.73 1839.12 201.55 1837.97 199.368C1837.62 198.692 1837.26 198.016 1836.89 197.319C1836.19 195.994 1835.49 194.668 1834.8 193.339C1832.3 188.506 1832.3 188.506 1829 184.216C1828.01 184.216 1827.02 184.216 1826 184.216Z" fill="white"/>
<path d="M1977 134.216C1985.91 134.216 1994.82 134.216 2004 134.216C2004 189.986 2004 245.756 2004 303.216C2047.56 303.216 2091.12 303.216 2136 303.216C2136 309.816 2136 316.416 2136 323.216C2135 324.216 2135 324.216 2132.41 324.339C2131.25 324.338 2130.08 324.337 2128.88 324.336C2127.91 324.337 2127.91 324.337 2126.93 324.339C2124.75 324.34 2122.56 324.335 2120.38 324.329C2118.8 324.329 2117.22 324.329 2115.64 324.33C2111.38 324.33 2107.13 324.324 2102.88 324.317C2098.9 324.311 2094.91 324.311 2090.93 324.31C2079.27 324.305 2067.6 324.291 2055.94 324.278C2029.89 324.258 2003.84 324.237 1977 324.216C1977 261.516 1977 198.816 1977 134.216Z" fill="white"/>
<path d="M1779 412.216C1787.78 419.948 1793.1 430.855 1794.22 442.52C1794.98 458.268 1793.04 472.807 1782.33 485.141C1770.41 496.626 1755.6 499.572 1739.69 499.528C1738.54 499.544 1737.39 499.56 1736.21 499.577C1721.81 499.585 1707.86 495.96 1697.06 485.903C1687.91 475.726 1684.42 464.398 1684.56 450.903C1684.57 449.894 1684.58 448.885 1684.59 447.846C1684.91 433.592 1689.22 422.519 1699.63 412.466C1720.8 395.074 1757.55 396.493 1779 412.216ZM1712 422.216C1711.44 422.718 1710.89 423.221 1710.31 423.739C1703.23 430.996 1701.61 440.429 1701.5 450.216C1701.67 461.768 1704.2 470.616 1712.42 479.083C1723.04 487.863 1735.88 488.244 1749 487.216C1758.4 485.333 1765.94 480.534 1771.38 472.653C1777.65 462.826 1778.26 451.54 1776.54 440.177C1774.38 431.167 1770 423.725 1762.23 418.501C1746.88 409.64 1725.4 410.026 1712 422.216Z" fill="#20ADC2"/>
<path d="M1936 403.216C1948.22 403.092 1948.22 403.092 1960.69 402.966C1963.23 402.929 1965.78 402.893 1968.4 402.855C1998.03 402.607 1998.03 402.607 2009 413.216C2013.88 419.749 2015.03 426.227 2014 434.216C2012.72 441.794 2009.02 446.555 2003 451.216C1999.43 453.422 1995.78 455.382 1992 457.216C2003.86 468.418 2003.86 468.418 2015.81 479.528C2016.33 480.002 2016.84 480.476 2017.37 480.964C2020.05 483.439 2022.75 485.893 2025.47 488.329C2026.03 488.835 2026.59 489.34 2027.17 489.861C2028.24 490.826 2029.32 491.786 2030.4 492.74C2031.63 493.858 2032.82 495.032 2034 496.216C2034 496.876 2034 497.536 2034 498.216C2017.31 500.59 2017.31 500.59 2010.56 496.873C2006.06 493.424 2002.28 489.318 1998.58 485.036C1996.65 482.817 1994.6 480.764 1992.5 478.716C1991.91 478.12 1991.33 477.525 1990.73 476.911C1988.27 474.502 1985.68 472.271 1983.05 470.052C1981 468.216 1981 468.216 1979.82 466.701C1977.58 463.977 1975.97 462.435 1972.46 461.64C1969.49 461.403 1966.6 461.334 1963.62 461.341C1960.12 461.3 1956.61 461.258 1953 461.216C1953 473.426 1953 485.636 1953 498.216C1947.39 498.216 1941.78 498.216 1936 498.216C1936 466.866 1936 435.516 1936 403.216ZM1953 415.216C1953 426.436 1953 437.656 1953 449.216C1964.86 449.317 1964.86 449.317 1976.5 448.466C1977.77 448.327 1979.04 448.187 1980.34 448.044C1986.66 446.614 1991.43 443.764 1995 438.216C1997.25 433.392 1997.43 429.28 1996 424.216C1993.13 419.44 1989.47 417.34 1984.23 415.644C1981.22 415.066 1978.34 415.105 1975.27 415.118C1974.1 415.121 1972.93 415.123 1971.73 415.126C1970.25 415.135 1968.77 415.144 1967.25 415.153C1960.2 415.184 1960.2 415.184 1953 415.216Z" fill="#20ADC2"/>
<path d="M2089.62 400.903C2090.32 400.899 2091.01 400.896 2091.72 400.893C2105.09 400.872 2117.5 402.216 2130 407.215C2130 412.495 2130 417.775 2130 423.215C2126.55 422.352 2123.79 421.284 2120.56 419.84C2105.78 413.723 2086.99 410.769 2071.38 415.84C2066.96 417.886 2064.41 419.971 2062 424.215C2061.19 428.753 2061.5 430.498 2064.13 434.305C2066.91 437.462 2069.35 438.365 2073.5 439.278C2074.16 439.429 2074.83 439.581 2075.51 439.737C2080.34 440.791 2085.2 441.594 2090.08 442.395C2091.34 442.604 2092.6 442.812 2093.9 443.028C2096.41 443.435 2098.93 443.828 2101.44 444.202C2113.76 446.156 2125.18 449.522 2132.94 459.778C2134.99 466.418 2135.36 474.145 2132.44 480.59C2126.42 490.468 2117.09 495.447 2106.05 498.36C2099.31 499.75 2092.42 499.607 2085.56 499.59C2084.85 499.591 2084.14 499.591 2083.41 499.592C2068.97 499.564 2056.49 497.422 2043 492.215C2043 486.935 2043 481.655 2043 476.215C2047.03 477.021 2049.67 477.865 2053.31 479.528C2069.21 486.164 2088.76 490.118 2105.62 484.528C2110.23 482.427 2113.69 479.827 2116 475.215C2116.36 471.444 2116.36 468.958 2114.69 465.528C2106.85 458.785 2095.45 458.093 2085.56 456.715C2056.34 452.633 2056.34 452.633 2047.59 442.602C2043.18 436.251 2043.49 429.673 2044 422.215C2045.25 418.715 2045.25 418.715 2047 416.215C2047.52 415.39 2048.03 414.565 2048.56 413.715C2059.69 402.304 2074.6 400.96 2089.62 400.903Z" fill="#20ADC2"/>
<path d="M1817 403.216C1822.28 403.216 1827.56 403.216 1833 403.216C1833.01 405.107 1833.03 406.999 1833.04 408.948C1833.1 415.227 1833.16 421.505 1833.24 427.783C1833.28 431.586 1833.32 435.39 1833.35 439.193C1833.37 442.87 1833.41 446.546 1833.46 450.222C1833.48 451.619 1833.49 453.015 1833.5 454.412C1833.54 463.782 1834.05 471.475 1839.06 479.528C1847.22 486.992 1856.7 486.97 1867.26 486.591C1873.8 486.181 1878.97 485.046 1883.85 480.485C1890.96 472.052 1890.32 461.247 1890.41 450.774C1890.43 449.397 1890.45 448.02 1890.47 446.643C1890.52 443.048 1890.56 439.452 1890.6 435.857C1890.64 432.176 1890.69 428.496 1890.74 424.815C1890.84 417.616 1890.92 410.416 1891 403.216C1896.28 403.216 1901.56 403.216 1907 403.216C1907.07 411.779 1907.12 420.342 1907.16 428.905C1907.17 432.882 1907.19 436.859 1907.23 440.836C1907.26 444.681 1907.28 448.526 1907.28 452.371C1907.29 453.831 1907.3 455.291 1907.32 456.75C1907.45 468.771 1906.68 479.077 1898.13 488.216C1885.88 500.094 1870.73 499.671 1854.66 499.489C1842.37 499.145 1832.16 495.526 1823.38 486.56C1816.21 477.545 1816.59 466.295 1816.71 455.364C1816.71 453.854 1816.72 452.344 1816.72 450.833C1816.73 446.891 1816.76 442.949 1816.79 439.007C1816.83 434.971 1816.84 430.935 1816.85 426.899C1816.89 419.005 1816.94 411.11 1817 403.216Z" fill="#20ADC2"/>
<path d="M1580 403.216C1613 403.216 1646 403.216 1680 403.216C1680 407.176 1680 411.136 1680 415.216C1666.14 415.216 1652.28 415.216 1638 415.216C1638 442.606 1638 469.996 1638 498.216C1632.39 497.886 1626.78 497.556 1621 497.216C1621 470.156 1621 443.096 1621 415.216C1607.47 415.216 1593.94 415.216 1580 415.216C1580 411.256 1580 407.296 1580 403.216Z" fill="#20ADC2"/>
</svg>
